<svg width="375" height="700" xmlns="http://www.w3.org/2000/svg">

 <g>
  <title>Layer 1</title>
  <path transform="rotate(-25 247 168.47)" stroke="#000" opacity="0.2" id="svg_6" d="m184.03714,161.89398c0,0 -20.71904,4.54292 -25.63992,20.24824c0,0 -4.40275,6.10047 -3.10785,9.34538c1.2949,3.24484 3.36691,4.28323 3.88483,4.67266c0,0 -2.58993,-2.98537 6.2157,-7.78783c0,0 4.53235,-0.77878 5.43879,-1.55755c0.90644,-0.77878 14.24435,-3.37472 17.09328,3.1151c2.84886,6.48989 3.4963,17.39275 3.10785,17.91192c-0.38845,0.51916 -13.5969,10.38377 -14.76234,13.23926c-1.16543,2.85549 -7.3812,8.69627 -10.1006,8.56653c-2.71932,-0.12974 -9.19409,-0.12974 -10.87751,-2.33633c-1.68335,-2.20659 -6.60422,-2.46614 -7.76966,0c-1.16543,2.46606 -0.77698,2.33633 -0.77698,2.33633c0,0 -4.14382,-0.90851 -5.43879,2.33633c-1.2949,3.24491 1.94249,4.67266 2.33094,4.67266c0.38845,0 -2.4604,-4.93227 1.55396,-3.89388c0,0 2.33087,0.09737 2.33087,-0.77878c0,-0.87615 -1.3597,4.57535 0,4.67266c0,0 4.56471,-5.06201 5.43879,-2.33633c0,0 2.91359,0.5841 3.88483,0.77878c0.97117,0.19468 0.77698,0.77878 0.77698,0.77878c0,0 2.52513,0.97345 0.77691,3.89388c0,0 0,1.07083 0.77698,1.55762c0.77698,0.48673 -0.48562,2.82305 -3.88483,0.77878c0,0 -0.87408,-0.77878 -0.77698,0c0.09717,0.77878 3.49637,4.9647 7.76966,-0.77878c0,0 1.55396,-4.38068 -0.77698,-5.4515c-2.33087,-1.07083 0.77698,-3.21248 3.88483,-1.55755c0,0 0.19426,3.1151 -0.77691,3.89388c-0.97124,0.77878 1.65106,0.09737 2.33087,-0.77878c0.67981,-0.87608 1.55396,1.8496 1.55396,2.33633c0,0.48673 0.87408,2.14165 1.55389,1.55762c0.67988,-0.5841 7.08985,-1.26557 6.99275,-0.77885c-0.09717,0.4868 3.01068,2.53107 3.88483,1.55762c0.87408,-0.97352 5.73008,-5.93823 6.2157,-5.4515c0.48562,0.48673 -3.30211,5.93823 -5.43879,7.00905c-2.13661,1.07075 -11.07177,1.75223 -13.98536,-0.77878c0,0 -4.46755,-0.87615 -4.66181,0c0,0 -5.05026,2.04428 -4.66181,3.1151c0.38853,1.07083 0.38853,0.48673 0.77698,0c0.38845,-0.4868 3.59347,-2.23902 3.88483,-1.55755c0.29136,0.6814 0,0.77878 0,0.77878c0,0 -4.07909,1.16813 -3.88483,1.55755c0,0 -4.75891,1.9469 -3.88483,6.23021c0,0 1.45679,1.07083 1.55396,0c0.0971,-1.07083 -0.58272,-3.99125 2.33087,-3.89388c0,0 0.48562,1.55755 2.33087,0.77878c1.84532,-0.77878 -1.06827,-2.4337 8.54664,-1.55755c0,0 -0.38845,1.8496 -1.55389,2.33633c-1.16543,0.48673 -3.10792,0.48673 -3.10792,2.33633c0,0 -1.26253,1.55755 0,3.1151c0,0 0.77698,0.48673 0.77698,0c0,-0.48673 -0.77698,-2.82305 3.10785,-3.89388c3.8849,-1.07083 3.10792,-0.77878 3.10792,-0.77878c0,0 -0.67988,4.67266 0.77698,4.67266c1.45679,0 -0.97124,2.92043 -3.8849,1.55755c0,0 -0.29129,-1.16813 -0.77691,-0.77878c-0.48562,0.38942 2.42797,6.03553 7.76966,-0.77878c0,0 1.74815,-3.60183 0,-4.67266c0,0 -1.16543,-3.60183 4.66181,-2.33633c0,0 2.42797,0.38935 2.33087,0c-0.0971,-0.38942 0.38845,1.8496 0,2.33633c-0.38845,0.48673 4.56471,-1.07083 4.66181,-1.55755l1.55389,0c0,0 -0.90644,4.54292 -1.55389,4.67266c-0.64745,0.12974 2.97832,-2.20659 3.88483,-3.89388c0,0 0,3.24484 -0.77698,3.89388c-0.77698,0.64904 3.49637,-3.50453 3.10785,-3.89388c0,0 -0.12946,4.15349 -1.55389,6.23021c-1.42443,2.07671 3.10785,-1.9469 3.88483,-3.1151c0,0 0.77691,0.51916 0,1.55755c-0.77698,1.03839 2.58986,-1.03839 3.10785,-3.89388c0,0 2.20141,-1.81717 3.10785,-2.33633c0,0 -0.12946,4.41304 -0.77698,4.67266c0,0 1.81295,-1.42781 2.33094,-3.1151c0,0 1.0359,1.55755 0.77698,2.33633c0,0 2.97832,-3.37472 3.88483,-6.23021c0.90644,-2.85549 0.77691,0.77878 0.77691,0.77878c0,0 1.81295,-0.25969 3.10792,-5.45143c0,0 7.51067,7.9175 10.10053,8.56653c2.58986,0.64897 -3.10785,-3.1151 -3.10785,-3.1151c0,0 4.27328,1.29794 4.66181,2.33633c0,0 -0.38853,-1.42781 -2.33094,-3.1151c-1.94241,-1.68736 2.33094,-0.77878 2.33094,-0.77878c0,0 0.90644,-0.25969 0.77691,-8.56661c0,0 5.82732,6.23028 9.32362,6.23028c3.49637,0 -3.23738,-2.59601 -3.88483,-4.67273c-0.64745,-2.07671 1.42443,-1.42774 2.33094,-0.77878c0.90644,0.64904 7.64013,4.54292 7.76966,5.4515c0.12946,0.90851 0.77691,-1.55755 0.77691,-1.55755c0,0 1.55396,0.77878 3.10792,0.77878c1.55389,0 -4.53228,-2.85549 -5.43879,-4.67273c-0.90651,-1.81717 8.41711,3.24491 11.65449,5.4515c0,0 2.71939,0.90851 3.10785,0c0.38853,-0.90858 -4.66181,-4.41304 -4.66181,-4.67273c0,-0.25962 -1.81288,-2.46606 1.55396,-0.77878c3.36684,1.68736 7.76966,0.38942 10.87751,1.55755c3.10792,1.1682 6.47469,4.80246 10.87758,4.67273c4.40282,-0.12981 4.40176,5.45143 12.4314,5.45143c4.66181,0 2.71939,1.81717 4.66181,1.55755c1.94241,-0.25962 -2.33087,-2.33633 -2.33087,-2.33633c0,0 4.66181,1.55755 5.43872,1.55755c0.77698,0 4.27335,0.12974 -3.88476,-3.1151c0,0 5.95671,0 3.88476,-0.77878c-2.07188,-0.77878 -7.25167,-2.33633 -6.99268,-3.1151c0.25906,-0.77878 5.56825,-0.64904 3.88483,-1.55755c-1.68335,-0.90858 -10.87751,-4.2833 -8.54664,-4.67273c2.33094,-0.38935 5.69778,-0.51916 3.88483,-1.55755c-1.81295,-1.03839 -24.08589,-3.50446 -27.19381,-6.23021c-3.10785,-2.72575 -11.1365,-10.64325 -13.20838,-10.90286c-2.07195,-0.25969 0,-2.20659 1.55389,-1.55762c1.55396,0.64904 2.97839,-0.38935 2.33094,-4.67266c-0.64752,-4.28323 6.66415,9.39269 10.87751,4.67266c2.20141,-2.46606 0.51799,-4.28323 3.10785,-3.89388c2.58986,0.38942 2.4604,-2.85549 3.10785,-1.55755c0.64745,1.29794 6.08624,9.34538 8.54664,8.56661c2.4604,-0.77878 0.64745,-1.29794 2.33094,-1.55755c1.68342,-0.25969 2.84886,-0.77878 3.10785,-2.3364c0.25899,-1.55755 1.81288,1.03846 2.33087,-1.55755c0.51799,-2.59594 0.90644,-5.84078 3.10785,-3.1151c2.20148,2.72575 2.97846,0.90858 3.10792,0c0.12946,-0.90851 4.79127,0.51916 4.66174,-2.33633c-0.12939,-2.85549 4.53235,0.90858 3.8849,-2.33633c-0.64752,-3.24484 3.93818,-0.43977 3.10785,-3.1151c-1.81295,-5.84085 6.2157,-0.51916 5.43872,-3.1151c-0.77691,-2.59594 3.75537,-0.51916 3.10792,-3.1151c-0.64752,-2.59594 4.31151,-1.6943 3.88483,-3.89388c-0.90644,-4.67273 4.66174,-1.42781 3.88483,-5.4515c-0.77698,-4.02362 3.53581,-0.02698 3.10785,-3.1151c-0.64752,-4.67266 5.54988,-2.97581 3.88483,-6.23021c-2.58993,-5.06208 2.66307,-2.88601 1.55396,-5.45143c-1.68342,-3.89388 10.81603,0.43198 7.76966,-6.23028c-1.4245,-3.1151 8.45993,-5.18912 3.88483,-7.78776c-7.76966,-4.41304 11.91341,-2.20659 2.33087,-9.34531c-8.93509,-4.15349 -9.48262,-4.54469 1.55396,-3.89388c4.40282,0.25962 11.00704,-5.84085 4.66174,-6.23028c-6.34523,-0.38935 -19.29462,-3.50446 -4.66174,-4.67266c14.63281,-1.16813 15.15079,-6.48982 9.32355,-6.23021c-5.82724,0.25962 -28.61824,0.25962 -22.532,-1.55755c6.08624,-1.81717 33.93979,-6.25811 23.30898,-10.90286c-5.05026,-2.20659 -40.63652,9.52575 -30.30166,1.55755c1.68335,-1.29794 18.12918,-5.97066 24.08596,-12.46048c5.95671,-6.48982 4.79127,-7.39841 1.55389,-6.23021c-3.23738,1.16813 -40.7905,18.30127 -34.96347,12.46041c1.03597,-1.03839 22.532,-11.29229 25.63992,-20.24817c3.10785,-8.95596 0.12946,-6.61963 -2.33094,-3.89395c-2.46033,2.72575 -37.79628,28.75479 -31.85562,20.24824c1.81295,-2.59594 17.61119,-12.97957 20.97811,-23.36335c3.36691,-10.3837 0.77698,-7.52814 -1.55396,-4.67266c-2.33087,2.85549 -38.33738,41.75958 -32.63253,28.036c1.2949,-3.1151 12.69046,-12.84984 13.98536,-21.80579c1.2949,-8.95596 -2.07188,-5.58117 -3.88483,-2.33633c-1.81295,3.24491 -27.32334,43.61159 -27.97079,36.60261c0,0 -0.12953,0.12974 -0.77698,0c-0.64745,-0.12981 0.51799,-3.76414 -0.77698,-3.1151c0,0 -0.51799,-2.85549 -1.55389,-2.3364c-1.03597,0.51916 -2.07195,0.12981 -2.33094,-3.1151c-0.25892,-3.24484 -7.89912,0.51916 -10.10053,17.13314c0,0 -1.55396,1.68523 -1.55396,5.45143c0,1.94698 -9.32355,11.42209 -14.76234,10.90293c-5.43879,-0.51916 -13.20845,10.90286 -15.53932,11.68164c-2.33087,0.77878 -7.51067,5.45143 -15.53932,0.77878c-8.02865,-4.67266 -15.92784,-6.23021 -9.32362,-7.00898c6.60422,-0.77878 5.30926,-3.37472 2.33087,-3.89388c-2.97832,-0.51916 -15.92777,-0.77878 -11.65449,-3.1151c4.27335,-2.3364 7.96477,-14.81884 2.33094,-11.68171c-2.33094,1.29794 -10.60883,12.83157 -9.32362,4.67266c0.38853,-2.46606 5.43879,-5.45143 3.88483,-14.01797c-1.55389,-8.56661 -3.70837,-1.75131 -3.88483,-0.77878c-0.25899,1.42774 -6.54112,19.15419 -7.76966,10.12409c-0.38845,-2.85549 2.84886,-6.61963 1.55396,-17.13314c-1.2949,-10.51344 -3.10785,0 -3.10785,0c0,0 -3.69474,10.76654 -3.10792,16.35436c0.25906,2.46614 -3.36684,1.55755 -3.10785,-3.1151c0.25906,-4.67266 2.20141,-14.92655 0.77698,-14.79681c-1.4245,0.12981 -5.69241,6.95127 -4.66181,12.46048c0.38853,2.07671 -5.56825,4.15349 0.77698,8.56653c6.34516,4.41304 13.20845,13.23926 13.20845,13.23926c0,0 -1.53516,5.70418 6.2157,8.56653c4.9208,1.81717 0.77698,5.45143 0.77698,5.45143z" fill="#396849"/>
 </g>
</svg>