<svg class="animated" id="freepik_stories-to-the-stars" xmlns="http://www.w3.org/2000/svg" viewBox="0 0 500 500" version="1.1" xmlns:xlink="http://www.w3.org/1999/xlink" xmlns:svgjs="http://svgjs.com/svgjs"><style>svg#freepik_stories-to-the-stars:not(.animated) .animable {opacity: 0;}svg#freepik_stories-to-the-stars.animated #freepik--Rocket--inject-189 {animation: 1s 1 forwards cubic-bezier(.36,-0.01,.5,1.38) slideLeft,1.5s Infinite  linear shake;animation-delay: 0s,1s;}            @keyframes slideLeft {                0% {                    opacity: 0;                    transform: translateX(-30px);                }                100% {                    opacity: 1;                    transform: translateX(0);                }            }                    @keyframes shake {                10%, 90% {                    transform: translate3d(-1px, 0, 0);                  }                  20%, 80% {                    transform: translate3d(2px, 0, 0);                  }                  30%, 50%, 70% {                    transform: translate3d(-4px, 0, 0);                  }                  40%, 60% {                    transform: translate3d(4px, 0, 0);                  }            }        </style><g id="freepik--Shadow--inject-189" class="animable" style="transform-origin: 250px 416.24px;"><ellipse id="freepik--path--inject-189" cx="250" cy="416.24" rx="193.89" ry="11.32" style="fill: rgb(245, 245, 245); transform-origin: 250px 416.24px;" class="animable"></ellipse></g><g id="freepik--Rocket--inject-189" class="animable" style="transform-origin: 254.242px 255.634px;"><path d="M254.35,132.83l-.7-.55c3.15-4,6.46-7.76,9.84-11.28l.63.62C260.76,125.11,257.47,128.89,254.35,132.83Z" style="fill: #15A83D; transform-origin: 258.885px 126.915px;" id="elex5ltsll1vq" class="animable"></path><g id="eld44wwhr2ym9"><rect x="246.75" y="137.98" width="5.19" height="0.88" style="fill: #15A83D; transform-origin: 249.345px 138.42px; transform: rotate(-51.58deg);" class="animable" id="elf1gk9s9074e"></rect></g><path d="M320,179.22c21.73-34.93,24.69-69.35,8.87-80.49s-47.23,3.24-72.8,35.47L183,226.37l74.92,52.76Z" style="fill: #15A83D; transform-origin: 260.933px 187.064px;" id="el58h0ws4g8s" class="animable"></path><g id="elpaex4ykou3f"><path d="M311.45,173.2l-63.6,98.87-7.78-14.87L303.24,167c17.86-25.51,27.87-48.82,27.91-61.8a1.06,1.06,0,0,1,2.06-.36C337.71,117.79,329.91,144.51,311.45,173.2Z" style="fill: rgb(255, 255, 255); opacity: 0.1; transform-origin: 287.262px 188.101px;" class="animable" id="el2g0s05zfljc"></path></g><g id="elaxqa3ifs4gs"><ellipse cx="220.42" cy="252.75" rx="31.81" ry="45.82" style="fill: #15A83D; transform-origin: 220.42px 252.75px; transform: rotate(-54.85deg);" class="animable" id="elritwvaz8rp"></ellipse></g><g id="el6rez634cfd7"><ellipse cx="220.42" cy="252.75" rx="31.81" ry="45.82" style="fill: rgb(255, 255, 255); opacity: 0.5; transform-origin: 220.42px 252.75px; transform: rotate(-54.85deg);" class="animable" id="el96ef9roc59u"></ellipse></g><g id="eliykdq08rehf"><path d="M250.1,210.44c-16.44-11.58-35.09-14.89-47-9.48l-18.55,23.38c11-12.28,34.51-11.44,54.17,2.4s28.39,35.73,20.51,50.2l15.57-25C276.14,238.81,266.72,222.14,250.1,210.44Z" style="opacity: 0.1; transform-origin: 229.738px 237.685px;" class="animable" id="el5qlyc96z4u3"></path></g><g id="el1zyditrsvh"><path d="M276.43,135.06c-4.56,7.22-8,20.73,5.55,30.26s25.11,1.76,30.36-5Z" style="opacity: 0.2; transform-origin: 292.365px 152.411px;" class="animable" id="elxapiw2whv3n"></path></g><path d="M315.54,152c-1.55,12.9-16.46,22.31-32.11,11.29s-11.82-28.23-.2-34c7.16-3.58,16.28-2,22.52,2.34S316.5,144,315.54,152Z" style="fill: rgb(255, 255, 255); transform-origin: 294.364px 147.733px;" id="el5yn9vqwd2un" class="animable"></path><path d="M285.56,160.24c-6.09-4.28-9.21-9.88-8.77-15.74a14.7,14.7,0,0,1,8.1-12c5.44-2.72,13.14-1.87,18.73,2.06s9,10.91,8.25,16.95a14.68,14.68,0,0,1-8.53,11.65C298,165.58,291.65,164.53,285.56,160.24Z" style="fill: #15A83D; transform-origin: 294.361px 147.677px;" id="eljhip60xm91" class="animable"></path><g id="el6kgdxzyz5ow"><path d="M285.56,160.24c-6.09-4.28-9.21-9.88-8.77-15.74a14.7,14.7,0,0,1,8.1-12c5.44-2.72,13.14-1.87,18.73,2.06s9,10.91,8.25,16.95a14.68,14.68,0,0,1-8.53,11.65C298,165.58,291.65,164.53,285.56,160.24Z" style="opacity: 0.3; transform-origin: 294.361px 147.677px;" class="animable" id="elwogriabamg8"></path></g><path d="M285.56,160.24c-6.09-4.28-9.32-9.72-9.08-15.3A12.89,12.89,0,0,1,284,133.78c5.23-2.42,12.78-1.36,18.37,2.58s9.13,10.69,8.61,16.43a12.87,12.87,0,0,1-8,10.84C297.85,165.74,291.65,164.53,285.56,160.24Z" style="fill: #15A83D; transform-origin: 293.749px 148.567px;" id="el3d47kweunx6" class="animable"></path><g id="el6z003mnq5dt"><path d="M285.56,160.24c-6.09-4.28-9.32-9.72-9.08-15.3A12.89,12.89,0,0,1,284,133.78c5.23-2.42,12.78-1.36,18.37,2.58s9.13,10.69,8.61,16.43a12.87,12.87,0,0,1-8,10.84C297.85,165.74,291.65,164.53,285.56,160.24Z" style="fill: rgb(255, 255, 255); opacity: 0.2; transform-origin: 293.749px 148.567px;" class="animable" id="elikvk0l9h3b"></path></g><g id="elf0tg7mjkds8"><path d="M306.61,140.31l-28.15,12.42a14.34,14.34,0,0,1-2-7.79,12.45,12.45,0,0,1,.75-3.77l18.17-8a21.13,21.13,0,0,1,11.21,7.16Z" style="fill: rgb(255, 255, 255); opacity: 0.3; transform-origin: 291.531px 142.95px;" class="animable" id="elw843ofpnvj"></path></g><g id="elvilhv7tk6jo"><path d="M310.65,148.32,284.82,159.7a24.94,24.94,0,0,1-4.22-3.92l28.1-12.4A19,19,0,0,1,310.65,148.32Z" style="fill: rgb(255, 255, 255); opacity: 0.3; transform-origin: 295.625px 151.54px;" class="animable" id="elcxuazcoppst"></path></g><g id="elnwuvys5plls"><path d="M338.81,126.05c-.86-6.9-6.16-14.88-14.54-20.78s-17.67-8.2-24.46-6.69c11.55-4.71,21.9-4.89,29.06.15S339.35,113.59,338.81,126.05Z" style="opacity: 0.1; transform-origin: 319.338px 110.524px;" class="animable" id="elhet2dhc5ksp"></path></g><g id="el3n2luvse1z"><ellipse cx="227.31" cy="242.96" rx="9.91" ry="13.95" style="fill: #15A83D; opacity: 0.5; transform-origin: 227.31px 242.96px; transform: rotate(-54.85deg);" class="animable" id="elajh9kxh8b8"></ellipse></g><g id="el66xxltyd2d2"><path d="M209,246.78c-3.15,4.47-10.81,4.51-17.11.07s-8.86-11.66-5.71-16.13,10.82-4.51,17.12-.07S212.11,242.31,209,246.78Z" style="fill: #15A83D; opacity: 0.5; transform-origin: 197.582px 238.75px;" class="animable" id="elqr36ooiu6c"></path></g><g id="elw4opxbfr3io"><path d="M252.71,277.59c-3.15,4.48-10.81,4.51-17.11.07s-8.85-11.66-5.7-16.13,10.81-4.51,17.11-.07S255.86,273.12,252.71,277.59Z" style="fill: #15A83D; opacity: 0.5; transform-origin: 241.305px 269.562px;" class="animable" id="el2bzexu1geaf"></path></g><g id="el3q2ty83wn07"><path d="M223,273.38c-3.15,4.47-10.81,4.5-17.11.07s-8.85-11.66-5.7-16.14,10.81-4.5,17.11-.07S226.11,268.9,223,273.38Z" style="fill: #15A83D; opacity: 0.5; transform-origin: 211.586px 265.343px;" class="animable" id="eluk8rjty198"></path></g><g id="elz6karx7cmm"><path d="M238.72,251a7.1,7.1,0,0,1-1.16,1.28c1.75-4.46-.89-10.65-6.52-14.61s-12.34-4.36-15.95-1.22a7.59,7.59,0,0,1,.81-1.51c3.15-4.47,10.82-4.51,17.12-.07S241.86,246.52,238.72,251Z" style="fill: #15A83D; opacity: 0.5; transform-origin: 227.578px 241.922px;" class="animable" id="elp2r9a5vnpqi"></path></g><g id="elxd85vl7o62"><path d="M209,246.78a7.36,7.36,0,0,1-1.15,1.28c1.75-4.47-.88-10.65-6.52-14.62s-12.34-4.36-15.95-1.21a7.32,7.32,0,0,1,.81-1.51c3.15-4.48,10.81-4.51,17.11-.07S212.11,242.3,209,246.78Z" style="fill: #15A83D; opacity: 0.5; transform-origin: 197.856px 237.7px;" class="animable" id="elz8utu4y0p6"></path></g><g id="eleky0tclw79u"><path d="M252.71,277.6a7.3,7.3,0,0,1-1.15,1.27c1.75-4.47-.89-10.65-6.52-14.61s-12.34-4.37-15.95-1.21a7.15,7.15,0,0,1,.81-1.52c3.15-4.48,10.81-4.51,17.11-.07S255.87,273.12,252.71,277.6Z" style="fill: #15A83D; opacity: 0.5; transform-origin: 241.577px 268.51px;" class="animable" id="elhstt5q51i2j"></path></g><g id="elvpvz7pz637"><path d="M223,273.38a6.61,6.61,0,0,1-1.15,1.27c1.75-4.46-.89-10.65-6.52-14.61s-12.34-4.36-15.95-1.21a6.94,6.94,0,0,1,.81-1.52c3.15-4.48,10.81-4.5,17.11-.07S226.11,268.9,223,273.38Z" style="fill: #15A83D; opacity: 0.5; transform-origin: 211.856px 264.292px;" class="animable" id="elozwxh12iti"></path></g><path d="M232.58,168.23s-13.5,17.52-25.26,32.6a15.48,15.48,0,0,1-14.21,5.71c-10.27-1.27-27,6-27,6S197.76,160.55,232.58,168.23Z" style="fill: #15A83D; transform-origin: 199.345px 189.998px;" id="el966lzslkpsa" class="animable"></path><g id="elonq3miedlzr"><path d="M232.58,168.23s-13.5,17.52-25.26,32.6a15.48,15.48,0,0,1-14.21,5.71c-10.27-1.27-27,6-27,6S197.76,160.55,232.58,168.23Z" style="opacity: 0.3; transform-origin: 199.345px 189.998px;" class="animable" id="elp7vwdo6e8c9"></path></g><path d="M295.89,212.82S284,231.43,273.71,247.58a15.47,15.47,0,0,0-.58,15.3c4.66,9.25,3.44,27.49,3.44,27.49S314.86,243,295.89,212.82Z" style="fill: #15A83D; transform-origin: 286.274px 251.595px;" id="elabcfc3zu2h" class="animable"></path><g id="eljm69x53fd"><path d="M295.89,212.82S284,231.43,273.71,247.58a15.47,15.47,0,0,0-.58,15.3c4.66,9.25,3.44,27.49,3.44,27.49S314.86,243,295.89,212.82Z" style="opacity: 0.3; transform-origin: 286.274px 251.595px;" class="animable" id="el23rk5p73p4v"></path></g><path d="M339.51,346.61C352,316.05,298,307.39,276.63,315.06s-43.16,13.37-44-7.08,15.62-33.13,7.77-37.85c-4.35-2.62-5.59,2-7.74,8.74-6.58,20.65-43.85,25.57-26.7,55.46s8,23.4-20.85,35.39-14,46.52,13.91,46.52H367.1C444.14,416.24,371.2,268.78,339.51,346.61Z" style="fill: #15A83D; transform-origin: 285.362px 342.813px;" id="eli8b9syc1usi" class="animable"></path><g id="elzw43iezc6ue"><path d="M339.51,346.61C352,316.05,298,307.39,276.63,315.06s-43.16,13.37-44-7.08,15.62-33.13,7.77-37.85c-4.35-2.62-5.59,2-7.74,8.74-6.58,20.65-43.85,25.57-26.7,55.46s8,23.4-20.85,35.39-14,46.52,13.91,46.52H367.1C444.14,416.24,371.2,268.78,339.51,346.61Z" style="fill: rgb(255, 255, 255); opacity: 0.6; transform-origin: 285.362px 342.813px;" class="animable" id="elb4s4tmu4bvo"></path></g><path d="M197.55,240.09c-2.24-7.78-14.36,2-26.3,13.85s-17.83,38.9-29.38,53S97.25,333.78,110.18,355c19.07,31.27-24.76,61.27,27.15,61.27H243.8c19.47,0,40.58-23.81,10.26-40s-75.74,21.56-88-14.45c-6.08-17.87,16-9.67,5.77-38.93s-9.55-37.23-4.34-50.27C180.17,240.84,201,251.91,197.55,240.09Z" style="fill: #15A83D; transform-origin: 188.258px 326.788px;" id="el6zkrlk5p1v3" class="animable"></path><g id="el2eqjk784ddo"><path d="M197.55,240.09c-2.24-7.78-14.36,2-26.3,13.85s-17.83,38.9-29.38,53S97.25,333.78,110.18,355c19.07,31.27-24.76,61.27,27.15,61.27H243.8c19.47,0,40.58-23.81,10.26-40s-75.74,21.56-88-14.45c-6.08-17.87,16-9.67,5.77-38.93s-9.55-37.23-4.34-50.27C180.17,240.84,201,251.91,197.55,240.09Z" style="fill: rgb(255, 255, 255); opacity: 0.6; transform-origin: 188.258px 326.788px;" class="animable" id="el43j64i42bmd"></path></g><path d="M219.62,243.68c2.64-4.82,11.7-1.93,11.5,4.38s-23.66,14.58-19.3,36.37,46.24,23.35,56.07,45.18S239.64,354.5,251,368.15s46.42-17.7,71.4-9.64,49.94,57.73,4.12,57.73H185.33c-30.7,0-53.12-63.39-23.62-89.47s5.7-17.61,16.71-34.32S209.49,262.16,219.62,243.68Z" style="fill: #15A83D; transform-origin: 249.981px 328.754px;" id="elhtlw4ozu3gm" class="animable"></path><g id="el8u17cb9ptyg"><path d="M219.62,243.68c2.64-4.82,11.7-1.93,11.5,4.38s-23.66,14.58-19.3,36.37,46.24,23.35,56.07,45.18S239.64,354.5,251,368.15s46.42-17.7,71.4-9.64,49.94,57.73,4.12,57.73H185.33c-30.7,0-53.12-63.39-23.62-89.47s5.7-17.61,16.71-34.32S209.49,262.16,219.62,243.68Z" style="fill: rgb(255, 255, 255); opacity: 0.8; transform-origin: 249.981px 328.754px;" class="animable" id="elcuqz7ys36z9"></path></g></g><defs>     <filter id="active" height="200%">         <feMorphology in="SourceAlpha" result="DILATED" operator="dilate" radius="2"></feMorphology>                <feFlood flood-color="#32DFEC" flood-opacity="1" result="PINK"></feFlood>        <feComposite in="PINK" in2="DILATED" operator="in" result="OUTLINE"></feComposite>        <feMerge>            <feMergeNode in="OUTLINE"></feMergeNode>            <feMergeNode in="SourceGraphic"></feMergeNode>        </feMerge>    </filter>    <filter id="hover" height="200%">        <feMorphology in="SourceAlpha" result="DILATED" operator="dilate" radius="2"></feMorphology>                <feFlood flood-color="#ff0000" flood-opacity="0.5" result="PINK"></feFlood>        <feComposite in="PINK" in2="DILATED" operator="in" result="OUTLINE"></feComposite>        <feMerge>            <feMergeNode in="OUTLINE"></feMergeNode>            <feMergeNode in="SourceGraphic"></feMergeNode>        </feMerge>            <feColorMatrix type="matrix" values="0   0   0   0   0                0   1   0   0   0                0   0   0   0   0                0   0   0   1   0 "></feColorMatrix>    </filter></defs></svg>