<svg data-v-423bf9ae="" xmlns="http://www.w3.org/2000/svg" viewBox="0 0 388 90" class="iconLeft"><!----><!----><!----><g data-v-423bf9ae="" id="f58ef54a-3a89-4cde-b441-b676bd45c020" fill="black" transform="matrix(5.988024248455585,0,0,5.988024248455585,288.5029161328024,-9.49101865937186)"><path d="M7.81 4.20L7.81 4.20Q8.08 4.20 8.08 4.47L8.08 4.47L8.08 6.20L8.08 6.20Q8.08 6.47 7.81 6.47L7.81 6.47L5.56 6.47L5.56 6.47Q5.45 6.47 5.45 6.58L5.45 6.58L5.45 13.73L5.45 13.73Q5.45 14 5.18 14L5.18 14L3.08 14L3.08 14Q2.81 14 2.81 13.73L2.81 13.73L2.81 6.58L2.81 6.58Q2.81 6.47 2.70 6.47L2.70 6.47L0.52 6.47L0.52 6.47Q0.25 6.47 0.25 6.20L0.25 6.20L0.25 4.47L0.25 4.47Q0.25 4.20 0.52 4.20L0.52 4.20L7.81 4.20ZM12.61 14.11L12.61 14.11Q11.47 14.11 10.59 13.65L10.59 13.65L10.59 13.65Q9.72 13.19 9.23 12.35L9.23 12.35L9.23 12.35Q8.75 11.51 8.75 10.42L8.75 10.42L8.75 7.77L8.75 7.77Q8.75 6.68 9.23 5.85L9.23 5.85L9.23 5.85Q9.72 5.01 10.59 4.55L10.59 4.55L10.59 4.55Q11.47 4.09 12.61 4.09L12.61 4.09L12.61 4.09Q13.73 4.09 14.62 4.53L14.62 4.53L14.62 4.53Q15.50 4.97 15.98 5.73L15.98 5.73L15.98 5.73Q16.46 6.48 16.46 7.38L16.46 7.38L16.46 7.38Q16.46 7.60 16.20 7.60L16.20 7.60L14.11 7.60L14.11 7.60Q13.85 7.60 13.85 7.53L13.85 7.53L13.85 7.48L13.85 7.48Q13.85 7.01 13.52 6.68L13.52 6.68L13.52 6.68Q13.19 6.34 12.61 6.34L12.61 6.34L12.61 6.34Q12.05 6.34 11.72 6.71L11.72 6.71L11.72 6.71Q11.38 7.08 11.38 7.70L11.38 7.70L11.38 10.50L11.38 10.50Q11.38 11.10 11.77 11.48L11.77 11.48L11.77 11.48Q12.15 11.86 12.73 11.86L12.73 11.86L12.73 11.86Q13.24 11.86 13.57 11.57L13.57 11.57L13.57 11.57Q13.90 11.28 13.90 10.78L13.90 10.78L13.90 10.64L13.90 10.64Q13.90 10.53 13.79 10.53L13.79 10.53L12.66 10.53L12.66 10.53Q12.39 10.53 12.39 10.26L12.39 10.26L12.39 8.69L12.39 8.69Q12.39 8.43 12.66 8.43L12.66 8.43L16.20 8.43L16.20 8.43Q16.46 8.43 16.46 8.69L16.46 8.69L16.46 10.56L16.46 10.56Q16.46 11.59 15.98 12.40L15.98 12.40L15.98 12.40Q15.50 13.22 14.62 13.66L14.62 13.66L14.62 13.66Q13.75 14.11 12.61 14.11L12.61 14.11Z"></path></g><!----><g data-v-423bf9ae="" id="b2913a80-3b12-49f4-8d7a-3b6e2505512c" transform="matrix(3.0821912976317787,0,0,3.0821912976317787,-18.909552361022776,-108.70957511333674)" stroke="none" fill="black"><path d="M26.2 35.4l-20 12.5v4.2l20 12.5 2.6-4.2L12.2 50l16.6-10.4zM73.8 35.4l-2.6 4.2L87.8 50 71.2 60.4l2.6 4.2 20-12.5v-4.2z"></path><circle cx="50" cy="50" r="5"></circle><circle cx="65" cy="50" r="5"></circle><circle cx="35" cy="50" r="5"></circle></g><!----></svg>